# xmcd
#
# Track frame offsets: 
#        182
#        24630
#        45492
#        70190
#        88705
#        108000
#        127932
#        149960
#        172090
#        190707
#        209075
#        227225
#
# Disc length: 3290 seconds
#
# Revision: 4
# Processed by: cddbd v1.5.2PL0 Copyright (c) Steve Scherf et al.
# Submitted via: ExactAudioCopy v0.99pb4
#
DISCID=ae0cd80c
DTITLE=John Tesh Project - Discovery
DYEAR=1996
DGENRE=Easy Listening
TTITLE0=Love Will Follow
TTITLE1=Fragile
TTITLE2=Our Love
TTITLE3=You Break It
TTITLE4=Walking in Memphis
TTITLE5=Don't Let Me Be Lonely Tonight
TTITLE6=Lady in Red
TTITLE7=Ellas Danzan Dolas (They Dance Alone)
TTITLE8=Kyrie
TTITLE9=Discovery
TTITLE10=Eleanor Rigby
TTITLE11=Lullabye (Goodnight My Angel)
EXTD=
EXTT0=
EXTT1=
EXTT2=
EXTT3=
EXTT4=
EXTT5=
EXTT6=
EXTT7=
EXTT8=
EXTT9=
EXTT10=
EXTT11=
PLAYORDER=
